<?xml version="1.0" encoding="UTF-8" standalone="no"?>
<svg
   id="Layer_1"
   data-name="Layer 1"
   viewBox="0 0 138.00002 62.410965"
   version="1.1"
   sodipodi:docname="logo.svg"
   width="138"
   height="62.410965"
   inkscape:version="1.1.2 (b8e25be833, 2022-02-05)"
   xmlns:inkscape="http://www.inkscape.org/namespaces/inkscape"
   xmlns:sodipodi="http://sodipodi.sourceforge.net/DTD/sodipodi-0.dtd"
   xmlns="http://www.w3.org/2000/svg"
   xmlns:svg="http://www.w3.org/2000/svg">
  <sodipodi:namedview
     id="namedview205"
     pagecolor="#ffffff"
     bordercolor="#666666"
     borderopacity="1.0"
     inkscape:pageshadow="2"
     inkscape:pageopacity="0.0"
     inkscape:pagecheckerboard="0"
     showgrid="false"
     lock-margins="true"
     fit-margin-top="9"
     fit-margin-left="9"
     fit-margin-right="9"
     fit-margin-bottom="9"
     inkscape:zoom="2.3223598"
     inkscape:cx="68.249545"
     inkscape:cy="64.158878"
     inkscape:window-width="1024"
     inkscape:window-height="705"
     inkscape:window-x="-8"
     inkscape:window-y="-8"
     inkscape:window-maximized="1"
     inkscape:current-layer="Layer_1" />
  <defs
     id="defs4">
    <style
       id="style2">.cls-1,.cls-3{fill:#a1218c;}.cls-2{fill:#388f26;}.cls-2,.cls-3{fill-rule:evenodd;}.cls-4{fill:none;}</style>
  </defs>
  <path
     class="cls-2"
     d="m 37.380005,22.352146 a 1.5033692,1.5033692 0 0 1 -0.47885,1.113606 1.6035938,1.6035938 0 0 1 -1.180424,0.467717 2.3163022,2.3163022 0 0 1 -0.991111,-0.189314 0.83520514,0.83520514 0 0 1 -0.53453,-0.779525 2.9287861,2.9287861 0 0 1 0.06682,-0.434306 2.5835679,2.5835679 0 0 0 0.06682,-0.423172 0.40089847,0.40089847 0 0 0 -0.334081,-0.456579 h -0.1225 c -0.322946,0 -0.478851,0.300675 -0.478851,0.902022 a 1.61473,1.61473 0 0 0 0.534532,1.380874 h -1.280648 a 2.0156284,2.0156284 0 0 1 -0.378626,-1.414281 1.3920086,1.3920086 0 0 1 0.423169,-1.113608 1.6592743,1.6592743 0 0 1 1.069064,-0.389761 1.0022462,1.0022462 0 0 1 0.846342,0.367489 l 0.367489,0.668164 a 0.70157231,0.70157231 0 0 0 0.62362,0.36749 c 0.634756,0 0.957701,-0.244993 0.957701,-0.757252 A 0.94656583,0.94656583 0 0 0 35.954588,20.759688 2.750609,2.750609 0 0 0 34.840981,20.548104 H 32.49127 a 0.23385744,0.23385744 0 0 0 -0.256129,0.211584 v 0 -1.113607 h 3.875351 a 0.70157231,0.70157231 0 0 0 0.523395,-0.222721 0.65702804,0.65702804 0 0 0 0.211586,-0.523394 0.82406908,0.82406908 0 0 0 -0.222722,-0.567941 0.76838873,0.76838873 0 0 0 -0.545667,-0.233858 v 0 a 1.2917839,1.2917839 0 0 1 0.902022,0.367491 1.2472396,1.2472396 0 0 1 0,1.759499 v 0 a 1.1804233,1.1804233 0 0 1 -0.478851,0.289538 1.8708595,1.8708595 0 0 1 0.846342,1.748363 m 9.465657,3.040146 a 1.3697364,1.3697364 0 0 1 -1.380872,1.314057 1.2583758,1.2583758 0 0 1 -1.325193,-1.147016 v -0.144768 a 1.1136068,1.1136068 0 0 1 0.423172,-0.946566 1.447689,1.447689 0 0 1 0.968837,-0.334082 1.9042677,1.9042677 0 0 1 0.356353,0 c 0,-0.356355 -0.122498,-0.534532 -0.412033,-0.534532 a 1.1136068,1.1136068 0 0 0 -0.278401,0 l 0.523394,-0.846341 a 0.89088548,0.89088548 0 0 1 0.768389,0.946566 0.79066086,0.79066086 0 0 1 -0.189313,0.556803 0.7795248,0.7795248 0 0 1 0.334082,0.645893 0.73498053,0.73498053 0 0 1 -0.211585,0.556803 0.70157231,0.70157231 0 0 1 -0.534533,0.211585 c -0.545665,0 -0.812931,-0.211585 -0.812931,-0.657029 a 0.6347559,0.6347559 0 0 1 0.579076,-0.668163 0.74611659,0.74611659 0 0 0 -0.601349,0.211585 0.84634121,0.84634121 0 0 0 -0.222721,0.62362 0.70157231,0.70157231 0 0 0 0.256129,0.534531 0.82406908,0.82406908 0 0 0 0.567941,0.222722 1.2806478,1.2806478 0 0 0 1.191558,-0.590212 m -0.567939,-0.556803 a 0.34521813,0.34521813 0 0 0 -0.322947,-0.322946 0.30067386,0.30067386 0 0 0 -0.233857,0.100214 0.30067386,0.30067386 0 0 0 0,0.423171 v 0 a 0.30067386,0.30067386 0 0 0 0.233857,0.100225 0.34521813,0.34521813 0 0 0 0.322947,-0.322946 m -0.746117,-3.084692 a 2.9956024,2.9956024 0 0 1 -0.31181,1.648139 1.2361036,1.2361036 0 0 1 -1.113607,0.6793 1.3363283,1.3363283 0 0 1 -1.403145,-0.6793 1.4254168,1.4254168 0 0 1 -0.16704,0.278401 1.3363283,1.3363283 0 0 1 -1.113607,0.501122 1.2026954,1.2026954 0 0 1 -1.113606,-0.712708 1.1136068,1.1136068 0 0 1 -0.445443,0.51226 1.2026954,1.2026954 0 0 1 -0.668166,0.200448 1.5256414,1.5256414 0 0 1 -1.113606,-0.367489 1.6815463,1.6815463 0 0 1 0,-2.082444 1.2806478,1.2806478 0 0 1 1.013383,-0.378627 0.70157231,0.70157231 0 0 1 0.501121,0.167041 0.51225916,0.51225916 0 0 1 0.200451,0.434306 c 0,0.389762 -0.211586,0.590212 -0.645893,0.590212 -0.434306,0 -0.679299,-0.155905 -0.679299,-0.47885 a 0.45657881,0.45657881 0 0 1 0.345218,-0.478852 c -0.356354,0.08909 -0.523396,0.289538 -0.523396,0.579076 0,0.289538 0.311811,0.590211 0.924294,0.590211 a 1.1136068,1.1136068 0 0 0 0.723845,-0.222721 0.72384445,0.72384445 0 0 0 0.334081,-0.6793 h 0.20045 a 0.76838873,0.76838873 0 0 0 0.289537,0.6793 1.0022462,1.0022462 0 0 0 0.679301,0.222721 0.85747727,0.85747727 0 0 0 0.623619,-0.233858 0.87974941,0.87974941 0 0 0 0.25613,-0.690435 0.85747727,0.85747727 0 0 0 -0.367489,-0.746117 1.1136068,1.1136068 0 0 0 -0.668165,-0.200449 h -3.22946 a 0.22272137,0.22272137 0 0 0 -0.25613,0.189313 v -1.113596 h 3.875352 a 0.70157231,0.70157231 0 0 0 0.523395,-0.222723 0.65702804,0.65702804 0 0 0 0.211586,-0.523394 0.83520514,0.83520514 0 0 0 -0.233858,-0.56794 0.70157231,0.70157231 0 0 0 -0.53453,-0.233857 v 0 a 1.2695118,1.2695118 0 0 1 0.913156,0.36749 1.2472396,1.2472396 0 0 1 0,1.759499 v 0 a 1.7483628,1.7483628 0 0 1 -0.289538,0.211585 1.4031447,1.4031447 0 0 1 0.244994,0.267267 2.0601726,2.0601726 0 0 1 0.434307,1.269511 v 0 c 0.155905,0.256129 0.534532,0.378625 1.113607,0.378625 a 0.92429369,0.92429369 0 0 0 1.035654,-0.924292 0.87974941,0.87974941 0 0 0 -1.046791,-0.946566 1.0356544,1.0356544 0 0 0 -0.712708,0.36749 V 19.90221 a 1.6370021,1.6370021 0 0 1 0.690437,-0.111361 1.4142806,1.4142806 0 0 1 1.113607,0.556802 2.5167515,2.5167515 0 0 1 0.400898,1.458825"
     id="path156"
     style="stroke-width:1.11361" />
  <path
     class="cls-2"
     d="m 18.170287,33.165269 v 0.100236 c 0.278402,0.445443 0.946566,0.679299 2.004493,0.679299 a 1.625866,1.625866 0 0 0 1.83745,-1.659275 1.5367775,1.5367775 0 0 0 -1.848586,-1.67041 1.6370021,1.6370021 0 0 0 -1.269513,0.657029 v -2.082446 a 2.8508335,2.8508335 0 0 1 1.213833,-0.200448 2.5167515,2.5167515 0 0 1 2.004491,0.99111 4.3430667,4.3430667 0 0 1 0.701573,2.583568 5.2228161,5.2228161 0 0 1 -0.601347,2.739473 2.2272137,2.2272137 0 0 1 -2.015629,1.202695 2.3497104,2.3497104 0 0 1 -2.405392,-1.380872 2.8953777,2.8953777 0 0 1 -0.31181,0.501123 2.3163022,2.3163022 0 0 1 -1.94881,0.879749 2.1603973,2.1603973 0 0 1 -1.169288,-0.334082 1.9822203,1.9822203 0 0 1 -0.768389,-0.935429 2.0824447,2.0824447 0 0 1 -0.79066,0.935429 2.2272137,2.2272137 0 0 1 -1.19156,0.334082 2.6615205,2.6615205 0 0 1 -1.9154037,-0.645892 2.4833433,2.4833433 0 0 1 -0.690436,-1.87086 2.5724318,2.5724318 0 0 1 0.612484,-1.837451 2.3385744,2.3385744 0 0 1 1.8708597,-0.668164 1.2806478,1.2806478 0 0 1 0.890885,0.289538 0.94656583,0.94656583 0 0 1 0.345217,0.779524 c 0,0.701573 -0.378626,1.046791 -1.113606,1.046791 -0.734981,0 -1.224967,-0.278402 -1.224967,-0.84634 a 0.83520514,0.83520514 0 0 1 0.623618,-0.857478 q -0.935428,0.256124 -0.935428,1.035648 c 0,0.701573 0.545666,1.057928 1.648139,1.057928 a 2.1381251,2.1381251 0 0 0 1.291783,-0.400898 1.3363283,1.3363283 0 0 0 0.601346,-1.202697 h 0.100226 a 1.3474643,1.3474643 0 0 0 0.523394,1.202697 1.8931317,1.8931317 0 0 0 1.202696,0.400898 1.5033692,1.5033692 0 0 0 1.61473,-1.659274 1.5367775,1.5367775 0 0 0 -0.746116,-1.291784 2.104717,2.104717 0 0 0 -1.202696,-0.345219 H 9.4618823 c -0.278402,0 -0.434307,0.1225 -0.456579,0.378627 v -2.082446 h 6.0914287 a 4.9221422,4.9221422 0 0 0 1.39201,-0.178176 1.1136068,1.1136068 0 0 0 0.723843,-1.113607 1.3251921,1.3251921 0 0 0 -0.968837,-1.3586 1.0022462,1.0022462 0 0 1 0.590211,0.968838 1.1136068,1.1136068 0 0 1 -1.113606,1.113606 1.1136068,1.1136068 0 0 1 -0.779526,-0.322946 1.1136068,1.1136068 0 0 1 0,-1.570185 v -0.05568 a 1.3251921,1.3251921 0 0 1 0.902022,-0.322946 2.2272137,2.2272137 0 0 1 1.603594,0.601348 2.2272137,2.2272137 0 0 1 0.723844,1.67041 2.115853,2.115853 0 0 1 -0.668163,1.581322 2.5612958,2.5612958 0 0 1 -0.523396,0.389762 2.5390236,2.5390236 0 0 1 0.445443,0.467716 3.6414944,3.6414944 0 0 1 0.746116,2.305165 m 31.615298,-2.0379 a 1.9265398,1.9265398 0 0 1 -0.579075,1.492232 2.1381251,2.1381251 0 0 1 -1.547912,0.545668 2.0379004,2.0379004 0 0 1 -1.458826,-0.489987 1.7038185,1.7038185 0 0 1 -0.489987,-1.392009 1.7929071,1.7929071 0 0 1 0.579075,-1.3586 2.126989,2.126989 0 0 0 -1.035654,2.037901 1.7929071,1.7929071 0 0 0 0.924294,1.603593 3.6526304,3.6526304 0 0 0 1.904267,0.456579 2.6169762,2.6169762 0 0 0 1.559051,-0.534531 v 2.817425 a 10.690626,10.690626 0 0 1 -2.227215,0.200451 3.1069631,3.1069631 0 0 1 -2.438799,-1.169288 4.0535289,4.0535289 0 0 1 0,-5.267361 3.3408205,3.3408205 0 0 1 2.572432,-1.113606 2.126989,2.126989 0 0 1 1.55905,0.601347 2.0267645,2.0267645 0 0 1 0.612484,1.536777 m -1.369737,-0.501121 a 0.79066086,0.79066086 0 0 0 -0.6793,-0.890887 0.67930018,0.67930018 0 0 0 -0.211585,0 0.87974941,0.87974941 0 0 0 -0.62362,0.256131 0.90202154,0.90202154 0 0 0 -0.256129,0.634756 0.84634121,0.84634121 0 0 0 0.244993,0.634755 0.90202154,0.90202154 0 0 0 1.525641,-0.56794 v -0.06682 m -4.866461,5.412129 a 4.0089847,4.0089847 0 0 1 -1.247241,3.140371 4.732829,4.732829 0 0 1 -3.34082,1.113607 c -2.873105,0 -4.454427,-1.24724 -4.565789,-3.763992 a 2.1492613,2.1492613 0 0 1 -1.681545,-0.801796 1.7038185,1.7038185 0 0 1 -0.233858,-0.445442 2.3497104,2.3497104 0 0 1 -2.438799,1.258376 2.2272137,2.2272137 0 0 1 -1.180423,-0.311811 1.4365528,1.4365528 0 0 1 -0.723844,-0.957701 1.5924577,1.5924577 0 0 1 -0.723845,0.935428 2.3497104,2.3497104 0 0 1 -1.213832,0.334084 c -1.759498,0 -2.639247,-0.835207 -2.639247,-2.516753 a 2.2272137,2.2272137 0 0 1 0.256129,-1.113608 0.92429369,0.92429369 0 0 1 0.857477,-0.590211 0.92429369,0.92429369 0 0 1 -0.868613,-0.467714 2.0267645,2.0267645 0 0 1 -0.267266,-1.013383 1.6592743,1.6592743 0 0 1 0.757252,-1.481097 2.9399221,2.9399221 0 0 1 1.670411,-0.434306 5.5680344,5.5680344 0 0 1 1.057926,0.100214 v 1.915403 a 2.1381251,2.1381251 0 0 0 -0.902021,-0.244992 c -0.723844,0 -1.113607,0.189314 -1.113607,0.590212 0,0.400898 0.356354,0.768389 1.113607,0.768389 a 2.3608464,2.3608464 0 0 0 0.489988,-0.05568 v 0.567939 a 2.4722073,2.4722073 0 0 0 -0.634756,-0.07795 c -0.62362,0 -0.93543,0.233856 -0.93543,0.712708 0,0.478851 0.501122,0.824068 1.503369,0.824068 a 1.4810971,1.4810971 0 0 0 1.113606,-0.445442 1.7706349,1.7706349 0 0 0 0.389763,-1.191559 h 0.211586 c 0,1.113607 0.489986,1.625866 1.46996,1.625866 0.979973,0 1.492233,-0.278402 1.492233,-0.824069 0,-0.545668 -0.322946,-0.712708 -0.957702,-0.712708 a 2.2272137,2.2272137 0 0 0 -0.601347,0.07795 v -0.56794 a 5.8909802,5.8909802 0 0 0 0.62362,0.05568 q 0.935429,0 0.935429,-0.768388 c 0,-0.4009 -0.345217,-0.590213 -1.057925,-0.590213 h -0.790662 a 0.80179693,0.80179693 0 0 0 -0.590212,0.278403 v -1.937677 h 0.890885 a 4.6994209,4.6994209 0 0 0 1.358601,-0.178176 1.1136068,1.1136068 0 0 0 0.734981,-1.113607 1.3251921,1.3251921 0 0 0 -0.968838,-1.358601 1.0245183,1.0245183 0 0 1 0.579076,0.968839 1.1136072,1.1136072 0 0 1 -2.227214,0 1.1136068,1.1136068 0 0 1 0.367489,-0.846342 1.3251921,1.3251921 0 0 1 0.902023,-0.322945 2.2272137,2.2272137 0 0 1 1.603593,0.601347 2.2272137,2.2272137 0 0 1 0.690437,1.681546 2.126989,2.126989 0 0 1 -0.679301,1.581321 l -0.200449,0.178178 a 1.2361036,1.2361036 0 0 1 0.322946,1.703819 1.2138315,1.2138315 0 0 1 -0.556803,0.445442 0.99111011,0.99111011 0 0 1 0.868613,0.590212 v 0 l 0.144769,-0.25613 c 0,0.868614 0.601348,1.30292 1.826315,1.30292 a 2.3608464,2.3608464 0 0 0 0.87975,-0.144761 c 0.356354,-0.133632 0.534531,-0.345217 0.534531,-0.623619 a 2.2272137,2.2272137 0 0 0 -0.712708,-1.336328 2.2272137,2.2272137 0 0 1 -0.723845,-1.403145 1.7149546,1.7149546 0 0 1 1.325191,-1.648137 6.5702804,6.5702804 0 0 1 2.227215,-0.356355 7.5168463,7.5168463 0 0 1 3.841943,0.768389 3.9978486,3.9978486 0 0 1 1.681547,3.697175 3.9978486,3.9978486 0 0 1 -0.668164,2.527887 2.6169762,2.6169762 0 0 1 -2.227214,1.057927 3.1626434,3.1626434 0 0 1 -2.049037,-0.634756 2.3942548,2.3942548 0 0 1 -0.824068,-1.959947 2.3274383,2.3274383 0 0 1 1.948811,-2.63925 2.5056154,2.5056154 0 0 1 0.645891,0 1.5367775,1.5367775 0 0 1 0.979976,0.31181 1.1136068,1.1136068 0 0 1 0.389762,0.87975 0.93542976,0.93542976 0 0 1 -0.423172,0.79066 1.6926824,1.6926824 0 0 1 -0.946566,0.289539 1.4588249,1.4588249 0 0 1 -0.835204,-0.233858 0.86861335,0.86861335 0 0 1 -0.300674,-1.158151 0.85747727,0.85747727 0 0 1 0.512258,-0.389763 1.4588249,1.4588249 0 0 0 -0.779523,0.367491 0.95770189,0.95770189 0 0 0 -0.144769,1.336328 1.0022462,1.0022462 0 0 0 0.47885,0.311811 2.8396975,2.8396975 0 0 0 1.213832,0.233856 c 1.414281,0 2.138125,-0.545667 2.149261,-1.648138 0,-0.734981 -0.47885,-1.280649 -1.458825,-1.625866 a 7.2607167,7.2607167 0 0 0 -2.438799,-0.389762 5.7907557,5.7907557 0 0 0 -1.637002,0.200449 c -0.723844,0.189313 -1.113607,0.501123 -1.113607,0.946566 a 1.0133822,1.0133822 0 0 0 0.356354,0.612484 4.064665,4.064665 0 0 1 0.657029,0.790661 2.6949286,2.6949286 0 0 1 0.267266,1.481096 2.0935809,2.0935809 0 0 1 -0.746118,1.570186 2.5278876,2.5278876 0 0 1 -1.659274,0.590212 h -0.222721 c 0.712709,1.336328 2.160398,2.004492 4.354202,2.004492 2.516753,0 4.042395,-0.835205 4.576926,-2.527887"
     id="path158"
     style="stroke-width:1.11361" />
  <path
     class="cls-2"
     d="m 106.14523,29.200828 -0.4009,2.772882 h 0.84634 l 0.4009,-2.817426 a 0.90202154,0.90202154 0 0 0 -0.65703,-1.113607 0.79066086,0.79066086 0 0 0 -0.32294,0 1.8485875,1.8485875 0 0 0 -0.90203,0.267266 v 0 -0.222722 h -0.7127 l -0.57908,3.886489 h 0.8018 l 0.48998,-3.262869 h 0.67931 c 0.31181,0 0.48998,0.08909 0.40089,0.489987"
     id="path160"
     style="stroke-width:1.11361" />
  <path
     class="cls-2"
     d="m 109.98717,31.97371 0.4009,-2.772882 c 0.13364,-0.668164 -0.31181,-1.113607 -1.11361,-1.113607 a 5.5680344,5.5680344 0 0 0 -1.21383,0.133633 v 0.590212 h 1.11361 c 0.36749,0 0.59021,0.08909 0.54567,0.579076 v 0.356353 h -0.81294 a 1.3697364,1.3697364 0 0 0 -1.33632,1.213832 0.84634121,0.84634121 0 0 0 0.89088,1.113607 1.6592743,1.6592743 0 0 0 0.99111,-0.31181 v 0.267265 z m -0.71271,-0.623622 h -0.59021 c -0.35635,0 -0.53453,-0.133632 -0.44544,-0.545665 0.0891,-0.412036 0.17818,-0.534533 0.53453,-0.579076 l 0.6793,-0.133632 z"
     id="path162"
     style="stroke-width:1.11361" />
  <path
     class="cls-2"
     d="m 113.94047,28.354487 a 0.7795248,0.7795248 0 0 0 -0.7127,-0.31181 3.1960518,3.1960518 0 0 0 -1.11361,0.267266 v -0.222722 h -0.71271 l -0.57908,3.886489 h 0.89089 l 0.48999,-3.262869 h 0.62362 c 0.31181,0 0.44544,0.08909 0.4009,0.489987 l -0.4009,2.772882 h 0.8018 l 0.44543,-2.995604 a 0.54566735,0.54566735 0 0 0 0,-0.267265 h 0.62363 c 0.35635,0 0.48999,0.08909 0.44544,0.489987 l -0.4009,2.772882 h 0.80179 l 0.45659,-2.817426 a 0.90202154,0.90202154 0 0 0 -0.65704,-1.113607 0.84634121,0.84634121 0 0 0 -0.33407,0 1.9822203,1.9822203 0 0 0 -1.1136,0.31181"
     id="path164"
     style="stroke-width:1.11361" />
  <path
     class="cls-2"
     d="m 119.50851,28.354487 a 0.74611659,0.74611659 0 0 0 -0.72385,-0.31181 3.1960518,3.1960518 0 0 0 -1.1136,0.267266 v -0.222722 h -0.66817 l -0.57907,3.886489 h 0.85747 l 0.48999,-3.262869 h 0.62362 c 0.35635,0 0.48999,0.08909 0.4009,0.489987 l -0.4009,2.772882 h 0.85748 l 0.44545,-2.995604 v -0.267265 h 0.66815 c 0.31182,0 0.48999,0.08909 0.4009,0.489987 l -0.4009,2.772882 h 0.84635 l 0.40089,-2.817426 a 0.89088548,0.89088548 0 0 0 -0.63475,-1.113607 0.91315762,0.91315762 0 0 0 -0.30067,0 1.9822203,1.9822203 0 0 0 -1.11361,0.31181"
     id="path166"
     style="stroke-width:1.11361" />
  <path
     class="cls-2"
     d="m 124.55314,31.97371 0.4009,-2.772882 c 0.13364,-0.668164 -0.31181,-1.113607 -1.1136,-1.113607 a 5.4566735,5.4566735 0 0 0 -1.20269,0.133633 v 0.590212 h 1.1136 c 0.35636,0 0.57908,0.08909 0.53454,0.579076 v 0.356353 h -0.80181 a 1.3697364,1.3697364 0 0 0 -1.34746,1.213832 0.86861335,0.86861335 0 0 0 0.59022,1.113607 0.72384445,0.72384445 0 0 0 0.3118,0 1.5367775,1.5367775 0 0 0 0.97998,-0.31181 v 0.267265 z m -0.7127,-0.623622 h -0.57908 c -0.35635,0 -0.48998,-0.133632 -0.44543,-0.545665 0.0445,-0.412036 0.17817,-0.534533 0.53452,-0.579076 l 0.66817,-0.133632 z"
     id="path168"
     style="stroke-width:1.11361" />
  <path
     class="cls-2"
     d="m 109.07402,40.125311 0.0891,-0.489986 c 0.48999,-3.340822 -0.44544,-5.089184 -2.72833,-5.089184 -2.2829,0 -3.9199,1.603595 -4.45443,5.133727 -0.32295,2.316304 0.0891,4.911008 3.20719,4.911008 a 8.6527253,8.6527253 0 0 0 2.77288,-0.445443 l 0.17818,-1.113608 h -2.41653 c -1.33633,0 -2.00449,-0.6793 -1.64814,-2.86197 z m -1.92655,-1.380872 h -2.89537 c 0.31181,-1.881995 0.80179,-2.772881 1.9154,-2.772881 1.11361,0 1.24724,1.024518 1.02452,2.327439 z"
     id="path170"
     style="stroke-width:1.11361" />
  <path
     class="cls-2"
     d="m 114.11865,44.145433 0.17818,-1.113608 h -0.93543 c -0.81294,0 -1.1136,-0.322945 -0.99111,-1.035653 l 0.81293,-5.222817 h 1.87086 l 0.22273,-1.425418 h -1.95995 l 0.35635,-2.227213 h -1.11361 l -1.02452,2.227213 h -1.46995 l -0.22273,1.425418 h 1.20269 l -0.80179,5.267361 c -0.22272,1.570185 0.57907,2.55016 1.91541,2.55016 a 4.7885095,4.7885095 0 0 0 1.92653,-0.445443"
     id="path172"
     style="stroke-width:1.11361" />
  <path
     class="cls-2"
     d="m 120.94506,36.238824 0.26727,-1.648139 h -0.48999 a 3.6637665,3.6637665 0 0 0 -2.32744,0.902022 v 0 -0.801797 h -1.78177 l -1.46996,9.777469 h 2.13812 l 1.11361,-8.229555 z"
     id="path174"
     style="stroke-width:1.11361" />
  <path
     class="cls-2"
     d="m 128.88508,39.59078 c 0.57907,-4.064664 -1.11361,-5.044639 -3.20719,-5.044639 -2.09358,0 -4.15375,0.979975 -4.73283,5.044639 -0.57908,4.064666 1.11361,5.000096 3.20719,5.000096 2.09358,0 4.10921,-0.93543 4.73283,-5.000096 m -2.22722,0 c -0.35634,2.583569 -0.80179,3.574677 -2.2272,3.574677 -1.42542,0 -1.65928,-0.991108 -1.25839,-3.574677 0.4009,-2.583568 0.71271,-3.574677 2.32745,-3.574677 1.61473,0 1.60359,1.113606 1.20269,3.574677"
     id="path176"
     style="stroke-width:1.11361" />
  <path
     class="cls-2"
     d="m 96.033678,35.347937 a 2.0156284,2.0156284 0 0 0 -1.781771,-0.801796 6.1025656,6.1025656 0 0 0 -2.672656,0.757254 v 0 -0.579077 h -1.881995 l -1.469961,9.732925 h 2.093581 l 1.213831,-8.173875 h 1.559049 c 0.890885,0 1.247241,0.222722 1.113608,1.258376 l -1.024519,6.915499 h 2.049037 l 1.113606,-7.550255 a 2.91765,2.91765 0 0 0 0,-0.62362 h 1.648138 c 0.890885,0 1.24724,0.222722 1.113607,1.258376 l -1.024518,6.915499 h 2.093585 l 1.1136,-7.093676 a 2.2272137,2.2272137 0 0 0 -1.525638,-2.750609 2.1603973,2.1603973 0 0 0 -0.924294,-0.06682 5.6459867,5.6459867 0 0 0 -2.772881,0.801796"
     id="path178"
     style="stroke-width:1.11361" />
  <path
     class="cls-2"
     d="m 57.870371,23.510297 a 1.0467904,1.0467904 0 1 1 -1.525641,0.367491 1.1136068,1.1136068 0 0 1 1.525641,-0.367491"
     id="path180"
     style="stroke-width:1.11361" />
  <path
     class="cls-2"
     d="m 79.017766,37.396975 a 1.1136068,1.1136068 0 1 1 -1.113608,1.92654 1.1136068,1.1136068 0 0 1 -0.412033,-1.514505 v 0 a 1.1136068,1.1136068 0 0 1 1.514505,-0.400898"
     id="path182"
     style="stroke-width:1.11361" />
  <path
     class="cls-2"
     d="m 57.736738,45.158815 a 1.1136068,1.1136068 0 0 1 1.536778,-0.322946 v 0 a 1.2138315,1.2138315 0 0 1 0,1.603594 1.1136068,1.1136068 0 0 1 -1.514504,0.322945 1.1804233,1.1804233 0 0 1 0,-1.61473"
     id="path184"
     style="stroke-width:1.11361" />
  <path
     class="cls-2"
     d="m 76.56783,15.447783 a 1.1136068,1.1136068 0 0 1 1.514505,-0.31181 1.1136068,1.1136068 0 0 1 0,1.570186 v 0 a 1.0245183,1.0245183 0 0 1 -1.403143,0.345219 l -0.111362,-0.07795 a 1.1136068,1.1136068 0 0 1 0,-1.559049"
     id="path186"
     style="stroke-width:1.11361" />
  <path
     class="cls-2"
     d="m 67.458527,31.038281 a 1.0133822,1.0133822 0 1 1 1.559049,1.258373 v 0 a 1.1136068,1.1136068 0 0 1 -1.525641,0.31181 1.2249675,1.2249675 0 0 1 0,-1.603593"
     id="path188"
     style="stroke-width:1.11361" />
  <path
     class="cls-3"
     d="m 55.186579,26.372266 a 3.3408205,3.3408205 0 0 1 -1.113606,-4.153752 2.6726564,2.6726564 0 0 1 3.218323,-1.870861 c -1.92654,-1.514504 -4.287386,-1.469961 -5.222817,1.02452 -0.712708,1.959947 0,3.931031 3.162645,5.000093"
     id="path190"
     style="stroke-width:1.11361" />
  <path
     class="cls-3"
     d="m 58.260134,18.209529 c 4.053528,1.336328 5.846435,5.490082 6.514601,7.450029 -0.757253,0.267266 -1.514507,0.445443 -1.514507,0.445443 a 13.263058,13.263058 0 0 0 -5.000094,-7.895472"
     id="path192"
     style="stroke-width:1.11361" />
  <path
     class="cls-3"
     d="m 79.285032,11.327439 c -0.62362,-1.3808732 -2.004493,-1.202696 -3.207188,-0.334083 -0.979974,0.757253 -4.287387,3.708311 -5.222816,12.594893 a 28.174253,28.174253 0 0 0 0.400898,8.430005 c 0.712709,-0.08909 1.737227,-0.133633 1.737227,-0.133633 a 31.258945,31.258945 0 0 1 -0.25613,-5.300768 C 77.113498,24.356638 80.688175,21.450125 82.60358,17.797494 84.964426,13.242843 83.449922,9.5345313 80.376366,9 c 2.360847,2.227213 1.55905,6.247334 -0.99111,9.688379 a 20.735359,20.735359 0 0 1 -6.559143,5.801893 24.399127,24.399127 0 0 1 2.449934,-9.042489 c 0.890885,-1.870859 2.539023,-3.752855 4.008985,-4.153753"
     id="path194"
     style="stroke-width:1.11361" />
  <path
     class="cls-3"
     d="m 54.162061,28.465848 c 4.454428,1.525641 10.089278,0.08909 14.33212,-1.737227 v 1.692682 c -1.113606,0.356355 -1.748362,0.579077 -2.906513,0.890886 a 25.612958,25.612958 0 0 1 0.267265,6.525737 23.118478,23.118478 0 0 1 7.182765,-1.659274 11.949002,11.949002 0 0 1 7.1939,1.570185 13.764181,13.764181 0 0 0 -6.380967,-0.489987 12.249675,12.249675 0 0 0 3.919894,5.801891 C 74.78606,40.247807 72.993153,36.906988 72.369533,35.437028 a 32.673226,32.673226 0 0 0 -6.603689,2.138124 28.953777,28.953777 0 0 1 -3.485589,11.871049 c -2.49448,4.064665 -5.801893,4.95555 -8.296371,2.895378 2.227213,0.501122 4.866463,-0.801797 6.960043,-4.855327 a 31.548482,31.548482 0 0 0 2.884242,-11.136068 30.468284,30.468284 0 0 0 0,-6.681641 c -4.955551,0.979974 -7.795249,0 -9.732925,-1.213831"
     id="path196"
     style="stroke-width:1.11361" />
  <path
     class="cls-3"
     d="m 60.943927,40.292352 c 0.178176,-0.890885 0.267265,-1.469961 0.400898,-2.405391 a 20.044923,20.044923 0 0 0 -7.182764,6.291879 c -1.826316,2.772882 -1.870859,6.158246 0.93543,6.024614 -0.757253,-1.380873 0,-4.10921 2.227214,-6.681641 a 20.234237,20.234237 0 0 1 3.608085,-3.218325"
     id="path198"
     style="stroke-width:1.11361" />
  <path
     class="cls-3"
     d="m 81.256116,33.644121 c 2.227213,1.291783 4.008985,4.109208 2.360846,7.093675 a 5.4678097,5.4678097 0 0 1 -6.681641,2.505614 c 2.672656,1.781772 6.870954,2.004493 8.908855,-1.915404 1.514505,-2.995602 -0.812933,-6.481191 -4.454428,-7.683885"
     id="path200"
     style="stroke-width:1.11361" />
  <rect
     class="cls-4"
     width="368.16"
     height="50.16"
     id="rect202"
     x="-0.76523823"
     y="4.79" />
</svg>
